<svg width="62" height="36" viewBox="0 0 62 36" fill="none" xmlns="http://www.w3.org/2000/svg">
<path d="M9.94304 28.2739C8.22652 28.2739 6.72 27.927 5.42348 27.233C4.14522 26.5391 3.15 25.553 2.43783 24.2748C1.74391 22.9783 1.39696 21.4535 1.39696 19.7004V10.1957C1.39696 9.68435 1.5613 9.28261 1.89 8.99043C2.2187 8.69826 2.65696 8.55217 3.20478 8.55217C3.75261 8.55217 4.19087 8.70739 4.51957 9.01783C4.86652 9.31 5.04 9.70261 5.04 10.1957V19.7826C5.04 21.5904 5.46913 22.9783 6.32739 23.9461C7.18565 24.9139 8.41826 25.3978 10.0252 25.3978C11.6139 25.3978 12.8374 24.9139 13.6957 23.9461C14.5722 22.96 15.0104 21.5722 15.0104 19.7826V10.1957C15.0104 9.70261 15.1748 9.31 15.5035 9.01783C15.8504 8.70739 16.2978 8.55217 16.8457 8.55217C17.3935 8.55217 17.8317 8.69826 18.1604 8.99043C18.4891 9.28261 18.6535 9.68435 18.6535 10.1957V19.7004C18.6535 21.3987 18.2883 22.8961 17.5578 24.1926C16.8457 25.4891 15.8322 26.4935 14.5174 27.2057C13.2026 27.9178 11.6778 28.2739 9.94304 28.2739ZM24.2255 28.2739C23.6776 28.2739 23.2394 28.1278 22.9107 27.8357C22.582 27.5435 22.4176 27.1417 22.4176 26.6304V10.1957C22.4176 9.68435 22.582 9.28261 22.9107 8.99043C23.2394 8.69826 23.6776 8.55217 24.2255 8.55217C24.755 8.55217 25.1933 8.69826 25.5403 8.99043C25.8872 9.28261 26.0607 9.68435 26.0607 10.1957V26.6304C26.0607 27.1417 25.8872 27.5435 25.5403 27.8357C25.1933 28.1278 24.755 28.2739 24.2255 28.2739ZM39.2 28.2739C37.4104 28.2739 35.7304 27.9817 34.16 27.3974C32.5895 26.7948 31.2291 25.9365 30.0786 24.8226C29.8047 24.5487 29.6678 24.2383 29.6678 23.8913C29.6678 23.4896 29.8504 23.1061 30.2156 22.7409C30.5078 22.4487 30.8273 22.3026 31.1743 22.3026C31.5395 22.3026 31.9778 22.5126 32.4891 22.9326C33.3473 23.7178 34.3608 24.3296 35.5295 24.7678C36.7165 25.1878 37.94 25.3978 39.2 25.3978C40.4052 25.3978 41.3456 25.197 42.0213 24.7952C42.6969 24.3752 43.0347 23.7909 43.0347 23.0422C43.0347 22.257 42.6695 21.627 41.9391 21.1522C41.2086 20.6591 39.9669 20.2209 38.2139 19.8374C35.4565 19.2348 33.4478 18.4404 32.1878 17.4543C30.946 16.4683 30.3252 15.1991 30.3252 13.647C30.3252 12.6609 30.6539 11.7843 31.3113 11.0174C31.9686 10.2322 32.8817 9.62956 34.0504 9.20956C35.2373 8.7713 36.5886 8.55217 38.1043 8.55217C39.8026 8.55217 41.3091 8.83522 42.6239 9.4013C43.9569 9.94913 44.9704 10.7252 45.6643 11.7296C45.9017 12.113 46.0204 12.4417 46.0204 12.7157C46.0021 13.1722 45.7739 13.5648 45.3356 13.8935C45.0982 14.0578 44.8243 14.14 44.5139 14.14C43.9478 14.14 43.4821 13.9209 43.1169 13.4826C42.5873 12.8435 41.8752 12.3413 40.9804 11.9761C40.1039 11.6109 39.1452 11.4283 38.1043 11.4283C36.8078 11.4283 35.7943 11.6291 35.0639 12.0309C34.3517 12.4143 33.9956 12.953 33.9956 13.647C33.9956 14.3409 34.3426 14.9161 35.0365 15.3726C35.7486 15.8109 36.9721 16.2309 38.7069 16.6326C40.6243 17.0891 42.1673 17.6096 43.336 18.1939C44.5047 18.76 45.3539 19.4357 45.8834 20.2209C46.4313 21.0061 46.7052 21.9465 46.7052 23.0422C46.7052 24.083 46.3947 25.0052 45.7739 25.8087C45.153 26.5939 44.2765 27.2057 43.1443 27.6439C42.0121 28.0639 40.6973 28.2739 39.2 28.2739Z" fill="white"/>
<path d="M10.943 28.2739C9.22652 28.2739 7.72 27.927 6.42348 27.233C5.14522 26.5391 4.15 25.553 3.43783 24.2748C2.74391 22.9783 2.39696 21.4535 2.39696 19.7004V10.1957C2.39696 9.68435 2.5613 9.28261 2.89 8.99043C3.2187 8.69826 3.65696 8.55217 4.20478 8.55217C4.75261 8.55217 5.19087 8.70739 5.51957 9.01783C5.86652 9.31 6.04 9.70261 6.04 10.1957V19.7826C6.04 21.5904 6.46913 22.9783 7.32739 23.9461C8.18565 24.9139 9.41826 25.3978 11.0252 25.3978C12.6139 25.3978 13.8374 24.9139 14.6957 23.9461C15.5722 22.96 16.0104 21.5722 16.0104 19.7826V10.1957C16.0104 9.70261 16.1748 9.31 16.5035 9.01783C16.8504 8.70739 17.2978 8.55217 17.8457 8.55217C18.3935 8.55217 18.8317 8.69826 19.1604 8.99043C19.4891 9.28261 19.6535 9.68435 19.6535 10.1957V19.7004C19.6535 21.3987 19.2883 22.8961 18.5578 24.1926C17.8457 25.4891 16.8322 26.4935 15.5174 27.2057C14.2026 27.9178 12.6778 28.2739 10.943 28.2739ZM25.2255 28.2739C24.6776 28.2739 24.2394 28.1278 23.9107 27.8357C23.582 27.5435 23.4176 27.1417 23.4176 26.6304V10.1957C23.4176 9.68435 23.582 9.28261 23.9107 8.99043C24.2394 8.69826 24.6776 8.55217 25.2255 8.55217C25.755 8.55217 26.1933 8.69826 26.5403 8.99043C26.8872 9.28261 27.0607 9.68435 27.0607 10.1957V26.6304C27.0607 27.1417 26.8872 27.5435 26.5403 27.8357C26.1933 28.1278 25.755 28.2739 25.2255 28.2739ZM40.2 28.2739C38.4104 28.2739 36.7304 27.9817 35.16 27.3974C33.5895 26.7948 32.2291 25.9365 31.0786 24.8226C30.8047 24.5487 30.6678 24.2383 30.6678 23.8913C30.6678 23.4896 30.8504 23.1061 31.2156 22.7409C31.5078 22.4487 31.8273 22.3026 32.1743 22.3026C32.5395 22.3026 32.9778 22.5126 33.4891 22.9326C34.3473 23.7178 35.3608 24.3296 36.5295 24.7678C37.7165 25.1878 38.94 25.3978 40.2 25.3978C41.4052 25.3978 42.3456 25.197 43.0213 24.7952C43.6969 24.3752 44.0347 23.7909 44.0347 23.0422C44.0347 22.257 43.6695 21.627 42.9391 21.1522C42.2086 20.6591 40.9669 20.2209 39.2139 19.8374C36.4565 19.2348 34.4478 18.4404 33.1878 17.4543C31.946 16.4683 31.3252 15.1991 31.3252 13.647C31.3252 12.6609 31.6539 11.7843 32.3113 11.0174C32.9686 10.2322 33.8817 9.62956 35.0504 9.20956C36.2373 8.7713 37.5886 8.55217 39.1043 8.55217C40.8026 8.55217 42.3091 8.83522 43.6239 9.4013C44.9569 9.94913 45.9704 10.7252 46.6643 11.7296C46.9017 12.113 47.0204 12.4417 47.0204 12.7157C47.0021 13.1722 46.7739 13.5648 46.3356 13.8935C46.0982 14.0578 45.8243 14.14 45.5139 14.14C44.9478 14.14 44.4821 13.9209 44.1169 13.4826C43.5873 12.8435 42.8752 12.3413 41.9804 11.9761C41.1039 11.6109 40.1452 11.4283 39.1043 11.4283C37.8078 11.4283 36.7943 11.6291 36.0639 12.0309C35.3517 12.4143 34.9956 12.953 34.9956 13.647C34.9956 14.3409 35.3426 14.9161 36.0365 15.3726C36.7486 15.8109 37.9721 16.2309 39.7069 16.6326C41.6243 17.0891 43.1673 17.6096 44.336 18.1939C45.5047 18.76 46.3539 19.4357 46.8834 20.2209C47.4313 21.0061 47.7052 21.9465 47.7052 23.0422C47.7052 24.083 47.3947 25.0052 46.7739 25.8087C46.153 26.5939 45.2765 27.2057 44.1443 27.6439C43.0121 28.0639 41.6973 28.2739 40.2 28.2739Z" fill="white"/>
<path d="M60 14V22" stroke="#5374FF" stroke-width="3" stroke-linecap="round"/>
<path d="M56 11.5V24.5" stroke="#5374FF" stroke-width="3" stroke-linecap="round"/>
<path d="M52 9V27" stroke="#5374FF" stroke-width="3" stroke-linecap="round"/>
</svg>
